<?xml version="1.0" encoding="iso-8859-1"?>
<!-- Generator: Adobe Illustrator 16.0.3, SVG Export Plug-In . SVG Version: 6.00 Build 0)  -->
<!DOCTYPE svg PUBLIC "-//W3C//DTD SVG 1.1//EN" "http://www.w3.org/Graphics/SVG/1.1/DTD/svg11.dtd">
<svg version="1.1" xmlns="http://www.w3.org/2000/svg" xmlns:xlink="http://www.w3.org/1999/xlink" x="0px" y="0px" width="400px"
	 height="300px" viewBox="0 0 400 300" enable-background="new 0 0 400 300" xml:space="preserve">
<g id="&#x30EC;&#x30A4;&#x30E4;&#x30FC;_1">
	<g>
		<path d="M80.191,42.227c4.066,0,8.88-0.249,14.357-0.415v3.154c-4.896,0.166-6.805,1.079-6.805,4.232
			c0,0.664,0.332,2.158,1.079,4.399l8.133,26.143l12.366-37.928h4.066l12.864,37.928l6.723-21.495
			c1.245-4.15,1.743-6.972,1.743-8.299c0-3.32-2.158-4.647-6.805-4.813v-3.32c3.734,0.166,6.805,0.249,9.212,0.249
			c3.403,0,6.391-0.166,9.129-0.332v3.403c-4.896,0.581-5.478,3.236-6.972,7.884l-15.104,45.812h-4.232l-12.698-37.43l-12.283,37.43
			h-4.315L74.631,51.107c-0.83-2.573-1.909-4.232-3.403-4.979c-1.245-0.664-2.656-0.913-4.315-1.162v-3.237
			C72.39,42.061,76.788,42.227,80.191,42.227z"/>
		<path d="M143.504,94.595c4.067-0.415,5.229-1.162,5.229-4.315V73.349c0-5.395-0.83-7.469-5.146-7.552v-2.905
			c5.893-0.664,10.623-1.577,14.026-2.905h1.411l0.664,7.22c3.071-4.564,6.805-6.805,10.457-6.805c4.315,0,6.805,2.158,6.805,5.893
			c0,3.071-1.992,5.063-5.146,5.063c-3.817,0-4.564-4.316-6.556-4.316c-2.158,0-4.813,3.818-4.813,7.884v15.603
			c0,3.402,1.494,4.066,5.81,4.066v3.071c-3.818-0.083-7.802-0.166-11.785-0.166c-2.49,0-6.059,0-10.955,0.166V94.595z"/>
		<path d="M178.538,94.595c4.481-0.249,5.229-0.996,5.229-4.398V70.611c0-3.983-0.997-4.813-5.229-4.979v-2.905
			c7.137-0.747,12.449-1.743,15.769-2.905h1.244v30.375c0,3.485,0.83,4.149,5.229,4.398v3.154
			c-5.312-0.166-8.714-0.249-10.374-0.249c-4.232,0-8.216,0.083-11.868,0.249V94.595z M189.161,38.741
			c3.568,0,6.307,2.822,6.307,6.308c0,3.485-2.821,6.307-6.307,6.307c-3.486,0-6.308-2.822-6.308-6.307
			C182.853,41.563,185.592,38.741,189.161,38.741z"/>
		<path d="M205.347,64.801h-4.149v-3.319c6.141-1.079,9.876-5.395,12.365-12.117h3.237v11.619h8.548v3.817H216.8v23.902
			c0,2.822,0.415,4.233,2.738,4.233c1.743,0,3.154-0.996,4.564-3.154l2.822,2.324c-2.822,4.398-6.806,6.557-12.034,6.557
			c-7.387,0-9.544-3.486-9.544-11.37V64.801z"/>
		<path d="M227.516,94.595c4.481-0.249,5.229-0.996,5.229-4.398V70.611c0-3.983-0.996-4.813-5.229-4.979v-2.905
			c7.137-0.747,12.448-1.743,15.769-2.905h1.244v30.375c0,3.485,0.83,4.149,5.229,4.398v3.154
			c-5.312-0.166-8.714-0.249-10.374-0.249c-4.232,0-8.216,0.083-11.867,0.249V94.595z M238.139,38.741
			c3.568,0,6.307,2.822,6.307,6.308c0,3.485-2.821,6.307-6.307,6.307c-3.486,0-6.308-2.822-6.308-6.307
			C231.831,41.563,234.57,38.741,238.139,38.741z"/>
		<path d="M251.967,94.761c4.73-0.415,5.146-1.162,5.146-4.73V71.524c0-4.399-0.996-5.478-5.146-5.478v-3.071
			c4.481-0.332,9.129-1.245,14.108-2.905h1.411l0.498,7.303c3.817-4.896,8.299-7.303,13.693-7.303
			c7.553,0,11.536,4.398,11.536,13.196v16.765c0,3.651,0.332,4.398,4.896,4.73v2.988c-3.817-0.166-7.387-0.249-10.789-0.249
			c-2.905,0-6.391,0.083-10.374,0.249v-2.988c3.9,0,4.73-0.996,4.73-4.73V73.266c0-4.73-1.66-7.137-4.979-7.137
			c-4.73,0-8.051,3.983-8.051,10.54v12.947c0,3.818,0.913,5.063,4.897,5.146v2.988c-4.897-0.166-8.715-0.249-11.536-0.249
			c-3.154,0-6.474,0.083-10.042,0.249V94.761z"/>
		<path d="M300.869,73.349c0-7.635,6.308-13.279,16.35-13.279c4.066,0,7.719,0.913,10.789,2.822
			c2.822-2.407,5.312-3.652,8.051-3.652c3.568,0,5.312,1.743,5.312,5.063c0,1.66-1.328,3.154-3.652,3.154
			c-2.24,0-3.319-3.071-5.478-3.071c-0.581,0-1.162,0.332-1.908,0.83c1.991,2.241,2.987,4.979,2.987,8.133
			c0,8.714-5.478,12.2-17.263,13.03c-4.149,0.332-6.556,1.079-6.556,3.569c0,3.237,2.738,2.822,8.797,2.988
			c13.361,0.332,19.503,3.236,19.503,12.947c0,9.295-7.22,14.523-20.831,14.523c-11.37,0-17.512-3.983-17.512-9.793
			c0-3.569,2.49-6.142,5.312-6.142c1.992,0,3.652,0.996,4.316,2.573c-1.577,0.415-2.573,1.826-2.573,3.32
			c0,3.901,3.9,6.474,11.038,6.474c7.553,0,12.449-3.486,12.449-8.05c0-3.735-2.905-5.644-8.798-5.644
			c-6.39,0-11.121-0.083-14.44-1.245c-3.485-1.245-5.561-4.232-5.561-7.884c0-4.315,2.739-7.635,7.719-9.046
			C303.858,83.142,300.869,78.993,300.869,73.349z M316.97,82.976c4.481,0,5.146-3.07,5.146-9.71c0-6.722-0.996-10.208-4.896-10.208
			c-3.734,0-5.146,3.403-5.146,10.042C312.073,79.74,313.07,82.976,316.97,82.976z"/>
		<path d="M101.892,135.801h-4.15v-3.319c6.142-1.079,9.876-5.395,12.366-12.117h3.236v11.619h8.548v3.817h-8.548v23.902
			c0,2.821,0.415,4.232,2.739,4.232c1.743,0,3.154-0.996,4.565-3.154l2.822,2.324c-2.822,4.398-6.806,6.557-12.034,6.557
			c-7.386,0-9.544-3.486-9.544-11.37V135.801z"/>
		<path d="M143.455,131.071c11.868,0,20.167,7.884,20.167,18.756c0,11.869-8.382,19.835-20.914,19.835
			c-11.868,0-20.333-8.051-20.333-19.171C122.375,139.287,130.841,131.071,143.455,131.071z M143.123,166.176
			c5.976,0,8.05-5.229,8.05-16.432c0-10.208-2.407-15.188-7.967-15.188c-5.892,0-8.299,5.146-8.299,16.1
			C134.907,161.28,136.733,166.176,143.123,166.176z"/>
		<path d="M207.863,131.071c9.212,0,16.599,7.303,16.599,18.59c0,12.035-7.387,20.001-18.508,20.001
			c-4.73,0-8.382-1.328-10.955-4.15l-8.714,4.15v-51.041c0-2.656-1.328-3.237-4.896-3.403v-3.071
			c6.557-0.581,11.951-1.245,16.267-2.656v25.23C200.31,132.399,203.547,131.071,207.863,131.071z M203.381,165.098
			c6.142,0,9.046-4.98,9.046-15.022c0-9.129-3.153-14.026-8.299-14.026c-5.561,0-6.806,3.735-6.806,11.121v10.872
			C197.323,162.691,199.481,165.098,203.381,165.098z"/>
		<path d="M263.655,161.446c-3.818,5.561-9.296,8.217-16.599,8.217c-11.702,0-19.835-7.885-19.835-19.006
			c0-11.453,8.216-19.669,20.582-19.669c10.374,0,16.516,6.142,16.516,17.014v0.664h-24.4c0,0.581-0.083,1.162-0.083,1.66
			c0,9.294,3.983,14.192,10.955,14.192c2.241,0,4.232-0.581,6.059-1.743c0.996-0.664,2.323-1.908,3.983-3.817L263.655,161.446z
			 M253.53,144.764v-0.996c0-6.058-2.241-9.295-6.308-9.295c-4.398,0-6.723,3.403-7.304,10.291H253.53z"/>
		<path d="M282.913,165.596c4.315-0.498,4.896-1.328,4.896-5.146v-18.175c0-4.15-0.581-5.561-4.813-5.644v-2.905
			c4.481-0.415,9.212-1.328,14.191-2.822h1.079l0.498,7.469c3.236-4.896,7.635-7.469,13.112-7.469s8.963,2.49,10.623,7.137
			c3.402-4.73,7.636-7.137,12.947-7.137c8.216,0,11.038,4.398,11.038,13.03v16.183c0,4.399,0.249,5.313,4.896,5.479v3.153
			c-3.237-0.166-6.391-0.249-9.628-0.249c-4.149,0-7.967,0.083-11.203,0.249v-3.071c3.817-0.082,4.73-1.244,4.73-5.561v-16.764
			c0-4.315-1.328-6.473-4.564-6.473c-4.648,0-7.885,4.232-7.885,10.872v12.117c0,4.315,0.498,5.643,4.315,5.727v3.153
			c-3.402-0.166-6.64-0.249-9.793-0.249c-3.9,0-7.387,0.083-10.457,0.249v-3.153c3.817-0.084,4.647-1.079,4.647-5.146v-17.511
			c0-4.15-1.245-6.059-4.647-6.059c-4.481,0-7.801,4.315-7.801,10.872v12.117c0,4.066,0.497,5.477,4.398,5.727v3.153
			c-3.403-0.166-6.806-0.249-10.374-0.249c-3.901,0-7.304,0.083-10.208,0.249V165.596z"/>
		<path d="M388.618,161.446c-3.818,5.561-9.296,8.217-16.599,8.217c-11.702,0-19.835-7.885-19.835-19.006
			c0-11.453,8.216-19.669,20.582-19.669c10.374,0,16.516,6.142,16.516,17.014v0.664h-24.4c0,0.581-0.083,1.162-0.083,1.66
			c0,9.294,3.983,14.192,10.955,14.192c2.241,0,4.232-0.581,6.059-1.743c0.996-0.664,2.324-1.908,3.983-3.817L388.618,161.446z
			 M378.493,144.764v-0.996c0-6.058-2.241-9.295-6.308-9.295c-4.398,0-6.723,3.403-7.304,10.291H378.493z"/>
	</g>
</g>
<g id="&#x30EC;&#x30A4;&#x30E4;&#x30FC;_2">
	<g>
		<path d="M3.38,145.94c-0.061,2.94,2.07,19.811,8.1,23.38c1.646,4.45,4.655,8.081,7.285,10.681h60.081
			c3.92-4.161,7.383-11.613,9.025-25c2.529-21.641-6.25-22.44-7.69-27.19C80,120.25,74.27,94,71.26,91.64
			c-0.18-6.28-12.31-18.58-13.01-22.16c-0.71-2.72,1.439-6.24-2.37-17.54c1.439-2.31,2-17.22,1.689-20
			c3.15-4.33,6.631-17.18,5.37-18.14c-3.27-2.19-11.199,5.37-14.609,8.14C33.32,19.09,32.24,19.8,30.28,19.37
			C26.4,15.74,24.3,7.81,21.01,4.77c-1.67-0.99-2.19-1.319-3.7-0.27C13.03,9.32,12.26,22,12.78,27.06
			c-0.51,1.19-0.989,4.88-1.109,6.94c-0.32,5.05,1.229,8.27-0.101,10.819c-0.68,2.32-0.859,6.41-0.359,9.86
			C9.98,58.23,7.38,64.5,6.61,68.91C4.63,77.06,7.33,84.06,6.82,89.56C6.59,94.28,7.37,101.53,9.2,105.83
			C8.7,133,2.69,133.83,3.38,145.94z"/>
	</g>
	<g>
		<path fill="#FFFFFF" d="M78.845,180H18.764c1.749,1.729,3.331,3.007,4.226,3.75c4.89,4.16,19.63,2.55,23.55,2
			c0.2,33.39,21.97,36.08,22.47,62.58c-3.42,25.05-26.06,18.67-24.47,31.92c4.09,9.75,35-8.75,38.84-25.92
			c5.01-32.66-23.72-48.08-18.54-69.08C68.522,185.25,74.03,185.112,78.845,180z"/>
	</g>
</g>
</svg>
